<?xml version="1.0" standalone="no"?>
<!DOCTYPE svg PUBLIC "-//W3C//DTD SVG 20010904//EN"
 "http://www.w3.org/TR/2001/REC-SVG-20010904/DTD/svg10.dtd">
<svg version="1.0" xmlns="http://www.w3.org/2000/svg"
 width="500.000000pt" height="500.000000pt" viewBox="0 0 500.000000 500.000000"
 preserveAspectRatio="xMidYMid meet">

<g transform="translate(0.000000,500.000000) scale(0.100000,-0.100000)"
fill="#000000" stroke="none">
<path d="M0 2500 l0 -2500 2500 0 2500 0 0 2500 0 2500 -2500 0 -2500 0 0
-2500z m2230 1390 c0 -20 54 -70 76 -70 8 0 14 -4 14 -10 0 -5 -6 -10 -14 -10
-22 0 -76 -50 -76 -70 0 -34 -16 -29 -34 10 -12 28 -27 43 -52 52 -18 6 -34
15 -34 18 0 3 16 12 34 18 25 9 40 24 52 52 18 39 34 44 34 10z m248 -22 c8
-8 15 -8 27 2 9 8 15 8 15 2 0 -6 -5 -14 -11 -18 -8 -4 -8 -9 0 -17 17 -17 13
-31 -4 -17 -12 10 -18 10 -30 0 -9 -7 -18 -11 -20 -8 -3 3 1 11 10 18 14 12
14 15 -1 31 -18 20 -6 27 14 7z m465 -208 c24 -46 28 -64 25 -111 -2 -31 -14
-74 -27 -99 -29 -55 -83 -347 -70 -372 6 -12 6 -25 0 -36 -6 -10 -8 -28 -5
-39 3 -11 -1 -27 -10 -35 -10 -11 -35 -157 -86 -514 -77 -540 -78 -544 -134
-530 -16 4 -28 16 -32 32 -4 14 24 240 61 502 37 262 67 485 66 497 -3 73 3
135 16 143 17 11 46 319 35 375 -11 54 0 129 25 166 25 38 76 82 92 79 8 -2
28 -28 44 -58z m279 43 c10 -9 18 -24 18 -34 0 -23 -26 -49 -50 -49 -10 0 -26
7 -34 16 -30 29 -9 84 31 84 9 0 25 -7 35 -17z m-678 -36 c16 -12 16 -17 3
-77 -17 -70 -25 -377 -14 -487 4 -37 3 -64 -3 -68 -6 -4 -10 -200 -10 -541 0
-521 0 -534 -20 -554 -24 -24 -38 -25 -68 -4 l-22 15 0 539 c0 309 -4 541 -9
544 -12 8 -12 124 0 132 14 8 0 327 -18 413 -14 71 -14 75 3 88 23 17 135 17
158 0z m-398 -79 c-23 -109 -3 -451 29 -510 8 -14 12 -33 9 -42 -3 -9 -1 -23
6 -30 8 -10 8 -20 1 -34 -7 -13 10 -154 62 -515 70 -486 71 -496 53 -516 -11
-12 -27 -21 -36 -21 -43 0 -48 22 -120 524 -38 268 -74 494 -81 502 -7 8 -13
55 -15 107 -4 123 -45 334 -83 430 -17 43 -31 84 -31 91 0 14 88 32 168 35 39
1 42 -1 38 -21z m-378 -4 c12 -8 22 -26 22 -38 0 -54 -77 -64 -95 -12 -8 24
-6 31 14 47 28 23 31 23 59 3z m1666 -159 c6 -18 -20 -39 -39 -31 -18 7 -20
43 -2 49 17 6 34 -2 41 -18z m-770 -40 c3 -8 -2 -22 -11 -30 -14 -15 -18 -15
-31 -1 -8 8 -12 22 -9 30 8 20 43 21 51 1z m491 -52 c12 -23 34 -45 55 -54
l35 -17 -35 -14 c-40 -17 -53 -31 -67 -73 -10 -27 -11 -28 -18 -10 -20 57 -28
68 -65 82 l-39 16 42 21 c31 15 45 30 52 54 5 17 12 32 15 32 3 0 14 -17 25
-37z m-1557 -17 c4 -21 -14 -37 -35 -29 -14 5 -18 35 -6 47 12 12 38 1 41 -18z
m212 -31 c7 9 15 13 18 10 3 -2 -1 -11 -8 -20 -10 -12 -10 -18 0 -30 8 -9 9
-15 2 -15 -6 0 -14 5 -18 11 -4 8 -9 8 -17 0 -17 -17 -31 -13 -17 4 10 12 10
19 2 27 -20 20 -13 32 7 14 16 -15 19 -15 31 -1z m-198 -203 c33 -22 96 -101
136 -172 30 -52 32 -53 33 -25 1 44 24 100 40 100 30 0 42 -57 49 -228 7 -164
8 -169 40 -233 19 -36 37 -67 42 -70 4 -3 8 13 8 35 0 54 15 91 38 91 34 0 46
-47 49 -185 3 -166 6 -180 53 -253 21 -34 48 -91 59 -128 24 -76 24 -74 13
-74 -5 0 -16 26 -25 58 l-16 57 -117 80 c-194 132 -280 225 -209 225 33 0 87
-29 150 -79 27 -22 50 -39 51 -38 1 1 -11 43 -27 92 -36 111 -62 138 -179 184
-138 55 -241 134 -212 163 7 7 28 5 68 -7 72 -21 98 -34 159 -80 26 -20 49
-35 51 -33 10 10 -85 177 -157 273 -85 115 -139 210 -139 245 0 25 7 25 42 2z
m1738 -6 c0 -37 -53 -129 -142 -248 -65 -88 -158 -248 -158 -273 0 -4 19 10
43 29 50 41 155 92 210 102 32 5 37 4 37 -13 0 -41 -92 -104 -227 -158 -91
-36 -153 -85 -153 -119 0 -8 -11 -46 -24 -85 -25 -73 -22 -86 9 -50 11 11 46
38 78 60 110 73 162 37 71 -48 -26 -23 -105 -82 -175 -130 -119 -81 -130 -91
-140 -128 -17 -67 -30 -87 -24 -35 6 46 30 101 88 200 31 54 31 57 33 195 1
142 10 190 40 202 23 8 34 -8 48 -68 l12 -54 34 65 c33 64 34 68 40 230 7 162
22 240 49 240 15 0 32 -37 40 -87 l6 -44 38 66 c40 69 134 175 155 175 7 0 12
-11 12 -24z m58 -188 c8 -8 15 -8 27 2 9 8 15 8 15 2 0 -6 -5 -14 -11 -18 -8
-4 -8 -9 0 -17 17 -17 13 -31 -4 -17 -12 10 -19 10 -27 2 -18 -18 -32 -14 -17
4 10 12 10 20 1 35 -13 21 -3 26 16 7z m-2614 -1269 c54 -42 13 -119 -65 -119
-20 0 -21 -4 -17 -65 4 -60 2 -65 -17 -65 -19 0 -20 6 -20 135 l0 135 46 0
c32 0 55 -7 73 -21z m361 -109 c26 -69 52 -128 58 -132 7 -4 -1 -8 -18 -8 -24
0 -30 5 -32 23 0 12 -8 39 -17 60 -14 33 -20 37 -51 37 -34 0 -35 -2 -52 -60
-14 -48 -22 -60 -38 -60 -12 0 -16 3 -9 8 6 4 33 64 59 135 26 70 49 126 51
125 1 -2 23 -59 49 -128z m453 110 c59 -36 80 -126 42 -187 -56 -93 -210 -81
-248 19 -21 54 -8 104 38 150 33 34 43 38 86 38 31 0 61 -7 82 -20z m706 -238
c5 -8 -1 -12 -20 -12 -15 0 -25 3 -22 6 4 3 -2 29 -11 57 -17 50 -19 52 -56
52 -37 0 -39 -2 -56 -52 -9 -28 -15 -54 -11 -57 3 -3 -5 -6 -18 -6 -17 0 -20
3 -12 13 6 6 27 57 48 112 20 55 41 111 46 125 9 22 15 11 57 -100 26 -69 50
-131 55 -138z m238 246 c-8 -8 -12 -50 -12 -125 l0 -113 55 0 c41 0 56 4 64
18 9 14 10 13 11 -10 l0 -28 -87 0 c-68 0 -84 3 -75 12 8 8 12 50 12 123 0 73
-4 115 -12 123 -9 9 -4 12 22 12 26 0 31 -3 22 -12z m514 -20 c64 -60 64 -150
-2 -207 -30 -27 -43 -31 -89 -31 -49 0 -60 4 -91 33 -31 28 -37 42 -41 83 -9
93 47 154 140 154 40 0 53 -5 83 -32z m321 -40 c25 -40 59 -93 75 -118 l29
-45 -3 118 c-2 93 0 117 11 117 8 0 11 -6 7 -16 -3 -9 -6 -69 -6 -135 0 -89
-3 -119 -12 -119 -7 0 -39 42 -70 93 -93 151 -89 150 -86 19 3 -102 1 -112
-15 -112 -14 0 -16 4 -7 19 14 28 13 224 -2 239 -9 9 -7 12 10 12 17 0 34 -18
69 -72z m461 48 c4 -17 3 -18 -19 -2 -30 21 -58 20 -81 -1 -37 -33 -18 -64 60
-98 65 -28 82 -78 40 -122 -35 -37 -138 -31 -138 8 0 18 1 18 20 -1 37 -37
110 -14 110 34 0 29 -23 49 -78 71 -64 26 -78 62 -41 109 19 24 27 27 73 24
40 -2 52 -7 54 -22z m420 4 c59 -36 80 -126 42 -187 -56 -93 -210 -81 -248 19
-21 54 -8 104 38 150 33 34 43 38 86 38 31 0 61 -7 82 -20z m-2178 -437 l22
-38 19 38 c11 20 24 37 29 37 6 0 10 -25 10 -55 0 -30 -4 -55 -10 -55 -5 0
-10 17 -10 38 l-1 37 -15 -27 c-8 -16 -19 -28 -24 -28 -5 0 -16 12 -24 28
l-15 27 -1 -37 c0 -21 -4 -38 -10 -38 -5 0 -10 25 -10 55 0 30 4 55 9 55 5 0
19 -17 31 -37z m210 -9 c23 -52 26 -77 6 -51 -17 22 -52 22 -65 0 -5 -10 -12
-16 -14 -13 -7 8 35 110 45 110 5 0 18 -21 28 -46z m100 26 c0 -11 3 -20 8
-20 4 0 13 9 20 20 7 11 17 20 24 20 6 0 1 -11 -12 -25 l-24 -25 29 -30 c36
-37 21 -40 -17 -3 l-28 27 0 -27 c0 -15 -4 -27 -10 -27 -5 0 -10 25 -10 55 0
30 5 55 10 55 6 0 10 -9 10 -20z m168 13 c-36 -5 -40 -42 -5 -44 l22 -2 -22
-4 c-34 -6 -30 -41 5 -46 22 -3 20 -4 -10 -6 l-38 -1 0 55 0 55 38 -1 c30 -2
32 -3 10 -6z m189 -84 c21 -21 43 2 43 47 0 24 5 44 10 44 13 0 13 -66 0 -91
-12 -21 -50 -25 -68 -7 -7 7 -11 32 -11 58 l2 45 6 -43 c4 -23 12 -47 18 -53z
m200 75 c8 -22 -9 -48 -36 -52 -13 -2 -21 -11 -21 -23 0 -10 -4 -19 -10 -19
-5 0 -10 25 -10 55 l0 55 35 0 c24 0 38 -5 42 -16z"/>
<path d="M2188 3838 l-28 -30 30 -29 c27 -28 29 -28 42 -11 7 10 21 23 30 28
15 8 13 13 -15 41 l-32 31 -27 -30z"/>
<path d="M2847 3661 c-42 -47 -61 -108 -53 -170 3 -24 8 -47 11 -49 3 -3 25
-8 50 -12 35 -5 48 -3 59 9 42 46 49 153 13 215 -12 22 -27 41 -33 43 -6 2
-27 -14 -47 -36z"/>
<path d="M2809 3419 c0 -2 -8 -73 -18 -156 -18 -164 -18 -163 33 -163 21 0 24
9 49 152 14 84 25 153 24 155 -5 4 -87 16 -88 12z"/>
<path d="M2752 3068 c5 -36 108 -47 108 -12 0 17 -40 34 -81 34 -26 0 -30 -3
-27 -22z"/>
<path d="M2749 3019 c-21 -13 -1 -38 35 -45 45 -8 68 1 64 23 -4 19 -78 36
-99 22z"/>
<path d="M2682 2463 c-50 -354 -68 -501 -60 -510 17 -20 48 -15 58 10 13 33
143 975 135 987 -3 5 -19 10 -34 10 l-28 0 -71 -497z"/>
<path d="M3164 3686 c-10 -26 4 -48 28 -44 17 2 23 10 23 28 0 18 -6 26 -23
28 -13 2 -25 -3 -28 -12z"/>
<path d="M2407 3663 c-16 -4 -18 -11 -12 -50 10 -66 27 -101 20 -40 -4 26 -2
47 3 47 5 0 12 -23 16 -51 l7 -50 37 3 c37 3 37 3 50 66 8 35 11 66 8 69 -8 8
-106 13 -129 6z"/>
<path d="M2421 3343 c4 -93 7 -169 8 -170 0 -2 16 -3 35 -3 l33 0 6 68 c4 37
7 113 7 170 l0 102 -47 0 -48 0 6 -167z"/>
<path d="M2417 3154 c-4 -4 -7 -16 -7 -26 0 -15 8 -18 56 -18 52 0 55 1 52 23
-3 19 -10 22 -48 25 -25 2 -49 0 -53 -4z"/>
<path d="M2410 3065 c0 -25 2 -26 53 -23 44 3 52 6 52 23 0 17 -8 20 -52 23
-51 3 -53 2 -53 -23z"/>
<path d="M2432 2483 l3 -538 24 -3 c13 -2 28 2 32 10 5 7 9 250 9 541 l0 527
-35 0 -35 0 2 -537z"/>
<path d="M2110 3541 c0 -33 -4 -63 -10 -66 -6 -4 -10 17 -10 54 0 62 -19 88
-21 29 l-1 -33 -11 30 c-11 28 -15 30 -54 27 -33 -2 -43 -7 -42 -20 0 -30 56
-157 68 -156 6 1 26 2 45 3 33 1 35 3 40 44 15 125 16 147 6 147 -6 0 -10 -25
-10 -59z"/>
<path d="M2052 3393 c-25 -3 -32 -8 -28 -21 3 -9 15 -75 27 -147 12 -71 25
-133 29 -138 3 -4 20 -5 36 -1 l30 6 -13 131 c-16 160 -20 177 -36 175 -6 0
-27 -3 -45 -5z"/>
<path d="M2070 3055 c-17 -21 -4 -35 35 -35 46 0 65 9 65 31 0 16 -7 19 -44
19 -26 0 -48 -6 -56 -15z"/>
<path d="M2093 3000 c-48 -20 -16 -51 42 -41 31 5 40 11 40 26 0 15 -7 21 -30
22 -16 1 -40 -2 -52 -7z"/>
<path d="M2128 2943 c-16 -2 -28 -10 -28 -16 0 -35 133 -946 141 -965 14 -35
53 -26 57 12 4 34 -129 977 -137 975 -3 -1 -18 -4 -33 -6z"/>
<path d="M1713 3564 c-7 -18 6 -45 24 -51 6 -2 18 3 27 12 12 12 13 21 6 36
-13 23 -48 25 -57 3z"/>
<path d="M3395 3421 c-6 -11 9 -23 19 -14 9 9 7 23 -3 23 -6 0 -12 -4 -16 -9z"/>
<path d="M2626 3382 c-3 -6 -1 -14 5 -17 15 -10 25 3 12 16 -7 7 -13 7 -17 1z"/>
<path d="M3105 3295 l-30 -30 30 -30 30 -30 30 30 30 30 -30 30 -30 30 -30
-30z"/>
<path d="M1560 3310 c0 -5 7 -10 15 -10 8 0 15 5 15 10 0 6 -7 10 -15 10 -8 0
-15 -4 -15 -10z"/>
<path d="M1591 3053 c29 -78 191 -307 197 -279 2 9 -18 56 -44 106 -64 120
-185 257 -153 173z"/>
<path d="M1811 2952 c-24 -46 -6 -217 32 -287 10 -21 12 -13 15 61 2 85 -12
204 -27 232 -7 13 -10 12 -20 -6z"/>
<path d="M1609 2653 c6 -11 33 -35 60 -52 50 -32 211 -104 218 -97 2 2 -18 23
-45 48 -59 52 -151 103 -206 113 -36 7 -38 6 -27 -12z"/>
<path d="M1987 2563 c-26 -42 -14 -182 23 -271 l20 -47 -3 147 c-2 121 -5 150
-18 164 -9 9 -19 12 -22 7z"/>
<path d="M1800 2336 c0 -21 86 -95 206 -176 79 -54 103 -66 94 -49 -20 37
-143 152 -211 198 -64 43 -89 50 -89 27z"/>
<path d="M3288 3043 c-63 -66 -158 -232 -158 -277 0 -36 170 210 200 289 13
35 0 31 -42 -12z"/>
<path d="M3080 2917 c-6 -30 -9 -103 -8 -163 l3 -109 18 51 c29 83 38 163 26
222 -6 28 -14 52 -19 52 -5 0 -14 -24 -20 -53z"/>
<path d="M3230 2647 c-64 -27 -133 -72 -174 -116 -17 -17 -27 -31 -25 -31 10
0 134 52 180 76 51 25 109 71 109 85 0 15 -32 10 -90 -14z"/>
<path d="M2908 2549 c-9 -17 -13 -67 -14 -161 -1 -76 0 -138 1 -138 2 0 14 30
26 68 39 115 29 303 -13 231z"/>
<path d="M3030 2306 c-65 -44 -193 -164 -212 -199 -12 -24 -12 -24 112 62 145
99 224 181 177 181 -7 0 -41 -20 -77 -44z"/>
<path d="M710 1570 c0 -48 1 -50 28 -50 35 0 52 16 52 52 0 29 -23 48 -59 48
-18 0 -21 -6 -21 -50z"/>
<path d="M1082 1547 c-16 -45 -16 -47 13 -47 28 0 32 20 12 58 -13 22 -13 22
-25 -11z"/>
<path d="M1467 1601 c-56 -50 -61 -121 -11 -181 32 -37 81 -47 123 -26 99 51
70 214 -41 232 -29 5 -41 1 -71 -25z"/>
<path d="M2192 1551 c-17 -47 -15 -51 13 -51 28 0 30 11 11 55 l-12 30 -12
-34z"/>
<path d="M2928 1614 c-81 -43 -73 -189 11 -224 60 -24 130 19 146 89 9 43 -25
115 -64 135 -37 20 -58 20 -93 0z"/>
<path d="M4127 1601 c-56 -50 -61 -121 -11 -181 32 -37 81 -47 123 -26 99 51
70 214 -41 232 -29 5 -41 1 -71 -25z"/>
<path d="M2267 1186 c-11 -27 -8 -36 8 -36 16 0 17 5 6 34 -7 18 -8 18 -14 2z"/>
<path d="M2900 1185 c0 -27 6 -30 29 -16 17 11 7 41 -14 41 -9 0 -15 -9 -15
-25z"/>
</g>
</svg>
